<?xml version="1.0" standalone="no"?>
<!DOCTYPE svg PUBLIC "-//W3C//DTD SVG 20010904//EN"
 "http://www.w3.org/TR/2001/REC-SVG-20010904/DTD/svg10.dtd">
<svg version="1.0" xmlns="http://www.w3.org/2000/svg"
 width="400.000000pt" height="400.000000pt" viewBox="0 0 400.000000 400.000000"
 preserveAspectRatio="xMidYMid meet">
<metadata>
Created by potrace 1.14, written by Peter Selinger 2001-2017
</metadata>
<g transform="translate(0.000000,400.000000) scale(0.100000,-0.100000)"
fill="#000000" stroke="none">
<path d="M379 3985 c-177 -48 -310 -182 -363 -364 -14 -48 -16 -223 -16 -1615
0 -1694 -2 -1616 56 -1733 37 -74 142 -180 214 -215 124 -61 28 -58 1736 -58
1389 0 1567 2 1615 16 183 53 317 188 364 365 21 78 22 3144 1 3231 -42 180
-184 323 -368 372 -74 20 -3167 21 -3239 1z"/>
</g>
</svg>
