<?xml version="1.0" encoding="UTF-8" standalone="no"?>
<!-- Created with Inkscape (http://www.inkscape.org/) -->

<svg
   xmlns:dc="http://purl.org/dc/elements/1.1/"
   xmlns:cc="http://creativecommons.org/ns#"
   xmlns:rdf="http://www.w3.org/1999/02/22-rdf-syntax-ns#"
   xmlns:svg="http://www.w3.org/2000/svg"
   xmlns="http://www.w3.org/2000/svg"
   xmlns:xlink="http://www.w3.org/1999/xlink"
   xmlns:sodipodi="http://sodipodi.sourceforge.net/DTD/sodipodi-0.dtd"
   xmlns:inkscape="http://www.inkscape.org/namespaces/inkscape"
   width="100pt"
   height="100pt"
   viewBox="0 0 125 124.99999"
   id="svg2"
   version="1.1"
   inkscape:version="0.92.4 (5da689c313, 2019-01-14)"
   sodipodi:docname="DDBgo_Logo.svg"
   inkscape:export-filename="D:\GitHub\ddbgo\images\DDBgo_Logo_96.png"
   inkscape:export-xdpi="69.120003"
   inkscape:export-ydpi="69.120003">
  <defs
     id="defs4" />
  <sodipodi:namedview
     id="base"
     pagecolor="#ffffff"
     bordercolor="#666666"
     borderopacity="1.0"
     inkscape:pageopacity="0.0"
     inkscape:pageshadow="2"
     inkscape:zoom="1.4"
     inkscape:cx="171.37059"
     inkscape:cy="99.236389"
     inkscape:document-units="px"
     inkscape:current-layer="g3374"
     showgrid="false"
     fit-margin-top="0"
     fit-margin-left="0"
     fit-margin-right="0"
     fit-margin-bottom="0"
     inkscape:window-width="1920"
     inkscape:window-height="1017"
     inkscape:window-x="1912"
     inkscape:window-y="-8"
     inkscape:window-maximized="1"
     units="pt" />
  <metadata
     id="metadata7">
    <rdf:RDF>
      <cc:Work
         rdf:about="">
        <dc:format>image/svg+xml</dc:format>
        <dc:type
           rdf:resource="http://purl.org/dc/dcmitype/StillImage" />
        <dc:title />
      </cc:Work>
    </rdf:RDF>
  </metadata>
  <g
     inkscape:label="Ebene 1"
     inkscape:groupmode="layer"
     id="layer1"
     transform="translate(4.2720002e-8,-927.36222)">
    <g
       id="Pusteblume"
       transform="matrix(0.96151607,0,0,0.96151607,-9.5228552,907.55884)" />
    <g
       id="g3466"
       transform="translate(0.91249193,-3.879723)">
      <g
         transform="matrix(0.96151607,0,0,0.96151607,-9.5228552,919.78645)"
         id="g3340">
        <defs
           id="defs3342">
          <path
             inkscape:connector-curvature="0"
             id="SVGID_1_"
             d="m 99.781,42.236 c 2.409,0.883 4.659,-0.556 6.568,-1.994 2.513,-1.891 4.438,-3.782 5.38,-0.397 -6.682,9.08 -24.789,2.834 -4.781,9.558 -1.85,-0.53 -4.506,-0.251 -7.163,0.027 -4.456,0.466 -8.912,0.934 -9.555,-2.413 5.237,-9.944 25.43,-17.517 21.499,-28.67 -6.702,14.91 -14.435,14.121 -26.279,23.889 0.523,-5.722 -1.625,-5.26 -4.265,-4.796 -2.77,0.484 -6.084,0.97 -7.435,-5.683 -0.085,-0.457 -0.366,-0.305 -0.384,0.165 -0.398,13.128 -2.739,8.27 -4.66,3.413 C 67.67,32.719 66.757,30.1 66.337,30.296 66.015,30.436 66.66,42.492 63.946,44.629 58.624,48.831 44.238,42.27 42.448,35.071 33.144,35.973 27.56,31.194 25.723,20.738 c 0,0 -2.693,-4.791 -7.169,-4.788 C 5.364,36.977 42.577,45.393 49.612,49.403 44.362,50.199 19.326,43.458 12.132,34.234 11.5,36.1 10.253,36.075 9.904,37.019 l 0,1.339 c 0.179,0.836 0.63,2.045 1.487,3.878 13.392,28.646 62.664,32.863 64.504,16.725 -2.994,26.299 -5.398,37.297 -15.26,56.902 -0.564,-0.011 -1.804,0.007 -2.667,0.225 -8.122,2.089 -11.598,13.538 -11.728,20.294 -0.009,0.396 -0.071,1.218 0.152,1.5 l 0.784,0 c 0.239,-0.103 0.465,-0.239 0.591,-0.302 22.296,-10.765 21.193,-51.235 32.9,-73.843 2.068,-3.98 -6.998,-9.915 0,-11.942 -0.487,10.047 9.079,10.029 9.563,19.109 -1.907,0.483 -4.302,-0.813 -6.117,-2.108 -2.616,-1.865 -4.031,-3.731 -1.049,-0.276 4.207,9.296 19.592,6.82 26.363,4.347 4.964,-1.814 5.296,-3.627 -6.804,-0.804 -5.09,-6.058 -16.652,-4.86 -17.172,-15.491 3.548,2.98 11.359,2.977 19.926,2.975 6.801,-0.003 14.075,-0.005 20.07,1.484 -7.325,0.138 -10.08,1.655 -16.701,4.465 27.136,8.597 13.925,-3.879 29.263,-13.7 -5.746,-2.972 -12.187,-0.788 -18.375,1.396 -6.449,2.272 -12.625,4.547 -17.456,0.988 15.299,-3.043 37.481,-11.839 33.443,-26.277 -5.431,9.161 -16.099,13.924 -21.501,11.942 2.802,-9.202 21.164,-15.38 16.729,-23.896 -4.202,13.361 -26.44,21.306 -31.068,26.287" />
        </defs>
        <clipPath
           id="SVGID_2_">
          <use
             height="100%"
             width="100%"
             y="0"
             x="0"
             style="overflow:visible"
             xlink:href="#SVGID_1_"
             overflow="visible"
             id="use3346" />
        </clipPath>
        <linearGradient
           id="SVGID_3_"
           gradientUnits="userSpaceOnUse"
           x1="-159.23241"
           y1="342.73679"
           x2="-158.08881"
           y2="342.73679"
           gradientTransform="matrix(112.1526,0,0,-112.1526,17868.072,38515.801)">
          <stop
             offset="0"
             style="stop-color:#575656"
             id="stop3349" />
          <stop
             offset="0"
             style="stop-color:#333333"
             id="stop3351" />
          <stop
             offset="1"
             style="stop-color:#9C9C9C"
             id="stop3353" />
        </linearGradient>
        <rect
           style="fill:url(#SVGID_3_)"
           x="5.3639998"
           y="15.946"
           clip-path="url(#SVGID_2_)"
           width="134.29401"
           height="121.936"
           id="rect3355" />
      </g>
      <g
         transform="matrix(0.96151607,0,0,0.96151607,-30.237141,907.55885)"
         id="g3357">
        <g
           id="g3359">
          <defs
             id="defs3361">
            <path
               inkscape:connector-curvature="0"
               id="SVGID_4_"
               d="m 102.244,122.529 c 0,15.503 12.569,28.07 28.072,28.07 15.504,0 28.073,-12.567 28.073,-28.07 0,-15.506 -12.569,-28.072 -28.073,-28.072 -15.503,0 -28.072,12.566 -28.072,28.072" />
          </defs>
          <clipPath
             id="SVGID_5_">
            <use
               height="100%"
               width="100%"
               y="0"
               x="0"
               style="overflow:visible"
               xlink:href="#SVGID_4_"
               overflow="visible"
               id="use3365" />
          </clipPath>
          <linearGradient
             id="SVGID_6_"
             gradientUnits="userSpaceOnUse"
             x1="-166.0713"
             y1="345.88821"
             x2="-164.92821"
             y2="345.88821"
             gradientTransform="matrix(49.1186,0,0,-49.1186,8259.4453,17112.096)">
            <stop
               offset="0"
               style="stop-color:#00818E"
               id="stop3368" />
            <stop
               offset="1"
               style="stop-color:#00B5C2"
               id="stop3370" />
          </linearGradient>
          <rect
             style="fill:url(#SVGID_6_)"
             x="102.244"
             y="94.457001"
             clip-path="url(#SVGID_5_)"
             width="56.146"
             height="56.143002"
             id="rect3372" />
        </g>
        <g
           id="g3374">
          <g
             id="g3763"
             style="fill:#ffffff;fill-opacity:1"
             transform="translate(-99.591604,-0.27857789)">
            <path
               style="font-style:normal;font-weight:normal;font-size:39.0009079px;line-height:1.25;font-family:sans-serif;letter-spacing:0px;word-spacing:0px;fill:#ffffff;fill-opacity:1;stroke:none;stroke-width:0.97502267"
               d="m 228.70919,114.54626 c 1.34211,3.1115 -0.46271,7.84666 -4.18136,9.44033 -1.33582,0.58568 -2.7863,0.72017 -4.09305,0.5335 -1.9155,0.72491 -2.09907,3.05184 -0.13256,3.1646 2.30088,0.64434 5.07451,0.96141 6.27204,3.14654 1.03446,1.97111 0.26496,5.10421 -2.10651,6.47921 -2.81874,1.65415 -6.11777,1.76099 -8.86814,1.09657 -1.79243,-0.37893 -3.23414,-1.97201 -2.73479,-3.98589 0.0983,-0.94247 0.75874,-2.02927 1.77283,-1.71084 0.69871,0 1.39742,0 2.09613,0 -1.01801,1.47534 -0.65061,3.4204 1.07689,3.64691 1.68008,0.35168 3.9219,0.27532 5.34927,-1.28086 1.36566,-1.72951 0.17738,-3.82055 -1.59849,-4.09509 -1.90431,-0.5725 -4.15273,-0.67895 -5.57068,-2.05665 -1.1486,-1.23212 -0.0863,-3.50863 1.52552,-4.3681 1.05655,-0.49482 1.00757,-0.86772 0.0943,-1.33773 -2.12551,-1.88925 -1.83147,-5.63361 0.0201,-8.26527 2.39922,-3.37474 7.45347,-4.1395 10.03123,-1.89967 1.76359,-0.43681 3.5272,-0.87362 5.29079,-1.31043 -0.16474,0.93429 -0.32948,1.86858 -0.49422,2.80287 -1.24976,0 -2.49952,0 -3.74929,0 z m -2.89228,3.60368 c 0.27242,-1.61642 0.1906,-3.72881 -1.43508,-4.31293 -1.34569,-0.46674 -3.1646,0.23141 -3.94227,1.68069 -1.09831,1.84404 -1.50774,4.16174 -0.69551,5.8685 0.87886,1.72911 3.94103,1.50849 5.06661,-0.4971 0.53495,-0.85321 0.83099,-1.81038 1.00628,-2.73916 z m 21.53341,3.31248 c -0.57319,3.31536 -2.24398,7.098 -5.57662,8.9182 -3.26429,1.65475 -7.38978,0.75052 -8.62284,-2.25571 -1.12364,-2.84183 -0.68409,-6.31931 0.40353,-9.48811 1.06272,-2.98798 3.56913,-6.03448 6.8212,-6.70373 2.87194,-0.66963 5.69398,0.65763 6.60282,3.15763 0.75248,1.92134 0.74415,4.18437 0.37191,6.37172 z m -3.34888,0 c 0.3226,-2.34677 0.81067,-5.20579 -0.95867,-6.77852 -1.42474,-1.15847 -3.96349,-0.22896 -5.02069,1.54305 -1.69872,2.64573 -2.06406,5.70463 -2.22789,8.53202 -0.0821,1.8362 0.69249,3.98835 2.78565,4.01035 1.74477,0.26872 3.39693,-1.30489 4.08036,-2.90013 0.68501,-1.42035 1.05444,-2.92908 1.34124,-4.40677 z"
               id="text3754"
               inkscape:connector-curvature="0" />
          </g>
        </g>
      </g>
    </g>
  </g>
</svg>
