<?xml version="1.0" encoding="UTF-8" standalone="no"?>
<!-- Created with Inkscape (http://www.inkscape.org/) -->

<svg
   xmlns:dc="http://purl.org/dc/elements/1.1/"
   xmlns:cc="http://creativecommons.org/ns#"
   xmlns:rdf="http://www.w3.org/1999/02/22-rdf-syntax-ns#"
   xmlns:svg="http://www.w3.org/2000/svg"
   xmlns="http://www.w3.org/2000/svg"
   xmlns:sodipodi="http://sodipodi.sourceforge.net/DTD/sodipodi-0.dtd"
   xmlns:inkscape="http://www.inkscape.org/namespaces/inkscape"
   width="16"
   height="16"
   viewBox="0 0 16 16"
   id="svg3420"
   version="1.1"
   inkscape:version="0.91 r13725"
   sodipodi:docname="ddb-logo.svg">
  <defs
     id="defs3422">
    <linearGradient
       id="SVGID_1_"
       gradientUnits="userSpaceOnUse"
       x1="43.109901"
       y1="235.9883"
       x2="334.98541"
       y2="235.9883">
      <stop
         offset="0"
         style="stop-color:#A51848"
         id="stop3690" />
      <stop
         offset="1"
         style="stop-color:#E41E3D"
         id="stop3692" />
    </linearGradient>
    <filter
       style="color-interpolation-filters:sRGB;"
       inkscape:label="Duochrome"
       id="filter5856">
      <feColorMatrix
         type="luminanceToAlpha"
         result="colormatrix1"
         id="feColorMatrix5858" />
      <feFlood
         flood-opacity="1"
         flood-color="rgb(190,190,190)"
         result="flood1"
         id="feFlood5860" />
      <feComposite
         in2="colormatrix1"
         operator="in"
         result="composite1"
         id="feComposite5862" />
      <feFlood
         flood-opacity="1"
         flood-color="rgb(190,190,190)"
         result="flood2"
         id="feFlood5864" />
      <feComposite
         in2="colormatrix1"
         result="composite2"
         operator="out"
         id="feComposite5866" />
      <feComposite
         in="composite2"
         in2="composite1"
         k2="1"
         k3="1"
         operator="arithmetic"
         result="composite3"
         id="feComposite5868" />
      <feColorMatrix
         in="composite3"
         type="matrix"
         values="2 -1 0 0 0 0 2 -1 0 0 -1 0 2 0 0 0 0 0 1 0 "
         result="colormatrix2"
         id="feColorMatrix5870" />
      <feComposite
         in="colormatrix2"
         in2="composite3"
         operator="arithmetic"
         k2="0"
         result="composite4"
         id="feComposite5872" />
      <feBlend
         in="composite4"
         in2="composite3"
         mode="normal"
         result="blend"
         id="feBlend5874" />
      <feComposite
         in2="SourceGraphic"
         operator="in"
         id="feComposite5876"
         result="fbSourceGraphic" />
      <feColorMatrix
         result="fbSourceGraphicAlpha"
         in="fbSourceGraphic"
         values="0 0 0 -1 0 0 0 0 -1 0 0 0 0 -1 0 0 0 0 1 0"
         id="feColorMatrix5878" />
      <feColorMatrix
         id="feColorMatrix5880"
         type="luminanceToAlpha"
         result="colormatrix1"
         in="fbSourceGraphic" />
      <feFlood
         id="feFlood5882"
         flood-opacity="1"
         flood-color="rgb(190,190,190)"
         result="flood1" />
      <feComposite
         id="feComposite5884"
         in2="colormatrix1"
         operator="in"
         result="composite1" />
      <feFlood
         id="feFlood5886"
         flood-opacity="1"
         flood-color="rgb(190,190,190)"
         result="flood2" />
      <feComposite
         id="feComposite5888"
         in2="colormatrix1"
         result="composite2"
         operator="out" />
      <feComposite
         id="feComposite5890"
         in2="composite1"
         in="composite2"
         k2="1"
         k3="1"
         operator="arithmetic"
         result="composite3" />
      <feColorMatrix
         id="feColorMatrix5892"
         in="composite3"
         type="matrix"
         values="2 -1 0 0 0 0 2 -1 0 0 -1 0 2 0 0 0 0 0 1 0 "
         result="colormatrix2" />
      <feComposite
         id="feComposite5894"
         in2="composite3"
         in="colormatrix2"
         operator="arithmetic"
         k2="0"
         result="composite4" />
      <feBlend
         id="feBlend5896"
         in2="composite3"
         in="composite4"
         mode="normal"
         result="blend" />
      <feComposite
         id="feComposite5898"
         in2="fbSourceGraphic"
         operator="in"
         result="fbSourceGraphic" />
      <feColorMatrix
         result="fbSourceGraphicAlpha"
         in="fbSourceGraphic"
         values="0 0 0 -1 0 0 0 0 -1 0 0 0 0 -1 0 0 0 0 1 0"
         id="feColorMatrix5900" />
      <feColorMatrix
         id="feColorMatrix5902"
         type="luminanceToAlpha"
         result="colormatrix1"
         in="fbSourceGraphic" />
      <feFlood
         id="feFlood5904"
         flood-opacity="1"
         flood-color="rgb(190,190,190)"
         result="flood1" />
      <feComposite
         id="feComposite5906"
         in2="colormatrix1"
         operator="in"
         result="composite1" />
      <feFlood
         id="feFlood5908"
         flood-opacity="1"
         flood-color="rgb(190,190,190)"
         result="flood2" />
      <feComposite
         id="feComposite5910"
         in2="colormatrix1"
         result="composite2"
         operator="out" />
      <feComposite
         id="feComposite5912"
         in2="composite1"
         in="composite2"
         k2="1"
         k3="1"
         operator="arithmetic"
         result="composite3" />
      <feColorMatrix
         id="feColorMatrix5914"
         in="composite3"
         type="matrix"
         values="2 -1 0 0 0 0 2 -1 0 0 -1 0 2 0 0 0 0 0 1 0 "
         result="colormatrix2" />
      <feComposite
         id="feComposite5916"
         in2="composite3"
         in="colormatrix2"
         operator="arithmetic"
         k2="0"
         result="composite4" />
      <feBlend
         id="feBlend5918"
         in2="composite3"
         in="composite4"
         mode="normal"
         result="blend" />
      <feComposite
         id="feComposite5920"
         in2="fbSourceGraphic"
         operator="in" />
    </filter>
    <linearGradient
       y2="235.9883"
       x2="334.98541"
       y1="235.9883"
       x1="43.109901"
       gradientUnits="userSpaceOnUse"
       id="linearGradient3413">
      <stop
         id="stop3415"
         style="stop-color:#A51848"
         offset="0" />
      <stop
         id="stop3417"
         style="stop-color:#E41E3D"
         offset="1" />
    </linearGradient>
  </defs>
  <sodipodi:namedview
     id="base"
     pagecolor="#ffffff"
     bordercolor="#666666"
     borderopacity="1.0"
     inkscape:pageopacity="0.0"
     inkscape:pageshadow="2"
     inkscape:zoom="15.839192"
     inkscape:cx="27.150323"
     inkscape:cy="-0.82258201"
     inkscape:document-units="px"
     inkscape:current-layer="layer1"
     showgrid="false"
     fit-margin-top="0"
     fit-margin-left="0"
     fit-margin-right="0"
     fit-margin-bottom="0"
     units="px"
     inkscape:window-width="1920"
     inkscape:window-height="1028"
     inkscape:window-x="1912"
     inkscape:window-y="-8"
     inkscape:window-maximized="1" />
  <metadata
     id="metadata3425">
    <rdf:RDF>
      <cc:Work
         rdf:about="">
        <dc:format>image/svg+xml</dc:format>
        <dc:type
           rdf:resource="http://purl.org/dc/dcmitype/StillImage" />
        <dc:title></dc:title>
      </cc:Work>
    </rdf:RDF>
  </metadata>
  <g
     inkscape:label="Ebene 1"
     inkscape:groupmode="layer"
     id="layer1"
     transform="translate(-4.2879464e-7,-1036.3622)">
    <path
       style="clip-rule:evenodd;opacity:1;fill:#bebebe;fill-opacity:1;fill-rule:evenodd"
       d="m 1.4779141,1037.1722 c 1.1498526,0.063 0.7589915,1.5608 1.6276938,2.0073 0.6037616,0.3771 1.3244692,0.041 1.582699,0.8479 0.5617454,0.4758 1.4240833,0.9086 2.1355606,0.5226 0.4042506,-0.3706 0.1144879,-1.5074 0.3548321,-1.6013 0.1198392,0.3493 0.6056983,1.7035 0.7207191,0.6479 0.0109,-0.3876 0.039575,-0.8527 0.1878106,-0.2116 0.2201458,0.7387 1.5272531,-0.173 1.2693539,0.883 0.9779558,-0.8388 2.3907478,-1.2378 2.9452858,-2.505 0.3589,-0.7066 0.207903,0.7631 -0.193335,0.9253 -0.665899,0.7781 -1.658427,1.2459 -2.189148,2.1428 0.279592,0.6746 1.724817,0.1062 1.861736,0.2451 -0.358029,-0.1137 -1.504454,-0.4307 -0.475026,-0.4724 0.510431,0.1461 1.672557,-1.0001 0.704202,-0.7165 -0.267468,0.4116 -1.400755,0.5664 -0.574578,0.079 1.193541,-0.7681 2.7199,-1.3754 3.26723,-2.7942 0.304059,0.9324 -0.834911,1.4017 -1.357336,1.9704 -0.394544,0.2821 -0.959992,1.1286 -0.03866,0.8744 0.820633,-0.1638 1.529817,-0.7288 1.958126,-1.4369 0.312949,1.0872 -0.734383,1.9172 -1.602716,2.3234 -0.61649,0.4136 -1.927996,0.5715 -2.229838,0.8408 0.969294,0.4529 1.936485,-0.3187 2.888027,-0.4676 0.448118,-0.1441 1.726998,-0.014 0.799675,0.4485 -0.635582,0.5473 -0.693643,1.973 -1.839315,1.5859 -0.448871,-0.1042 -1.696694,-0.2705 -0.665991,-0.523 0.326648,-0.306 2.017382,-0.2638 0.984921,-0.3959 -1.319933,-0.2215 -2.70061,0.1086 -3.9918618,-0.2868 -0.620026,-0.3417 0.116269,0.9732 0.5578178,0.9653 0.781738,0.3794 1.355229,0.8734 2.239306,0.5376 0.248419,0.291 -1.058403,0.4933 -1.434897,0.5226 -0.801022,0.2192 -1.8874805,-0.4278 -2.0336608,-0.9447 0.2794533,0.3653 1.3348798,0.7958 0.852777,-0.045 -0.4877249,-0.4573 -0.9711455,-1.3337 -1.1293371,-1.6972 -0.4735452,0.521 0.6324692,1.2766 -0.1086825,1.8792 -0.9648668,2.3202 -0.9877922,5.0033 -2.418476,7.1289 -0.2770987,0.3473 -1.1194328,1.3384 -1.3943324,0.9043 -0.014411,-1.1061 0.6620303,-2.3439 1.7492865,-2.5242 1.0202393,-1.9029 1.4825823,-4.0368 1.69403,-6.1702 0.2048742,-0.9293 -0.2292158,0.5588 -0.7921903,0.4742 -1.713126,0.5196 -3.6096765,-0.02 -5.0764283,-0.9638 -0.8550764,-0.5926 -1.63913192,-1.4395 -1.86358184,-2.4787 0.38785126,-0.7922 1.03019454,0.6181 1.71038624,0.6245 0.9430905,0.3975 1.9408427,0.779 2.9755633,0.7941 -1.2998079,-0.6105 -2.8998637,-0.9332 -3.7708915,-2.1813 -0.35845,-0.5435 -0.2315415,-1.2455 0.1132428,-1.7586 z"
       id="path3694"
       inkscape:connector-curvature="0" />
  </g>
</svg>
